# File created by Blade
# Date/Time:  Wed Apr 08 14:47:20 2015
# Frame Rate: 120.000 fps
#------------------------------------------------------
:FULLY-SPECIFIED
:DEGREES
2391
root 5.480938 31.236112 -18.910279 13.906688 -8.999657 -9.688385
Spine -6.442013 1.368229 9.040255
Head 7.740336 -3.275555 0.783027
LeftShoulder -19.564387 48.142255 4.338472
LeftArm 52.544471 9.971569 -77.418380
LeftForeArm 0.276602 0.000000 122.002777
LeftHand 9.223163 -0.000000 2.059607
LeftHandThumb1 -26.253704 0.000000 33.147579
RightShoulder -3.446261 -11.788212 -18.528470
RightArm 18.135715 -31.425076 77.614265
RightForeArm 4.800950 -0.000000 115.816007
RightHand 11.236784 -0.000000 -1.031504
RightHandThumb1 -24.326973 -0.000000 -32.862282
LeftUpLeg -41.288763 8.362043 6.322114
LeftLeg 18.358232 -0.000000 -0.000000
LeftFoot 6.155529 12.984837 -17.283451
LeftToeBase -4.661679 -0.000000 0.000000
RightUpLeg 1.837180 2.300058 13.635728
RightLeg -1.742785 -0.000000 0.000000
RightFoot -19.210927 -15.823834 11.833176
RightToeBase -4.409396 -0.000000 0.000000
2392
root 5.485916 31.232815 -18.889190 13.855395 -9.050571 -9.671624
Spine -6.348891 1.454897 8.935102
Head 7.849809 -3.336535 0.718905
LeftShoulder -19.592765 48.170514 4.296260
LeftArm 52.504168 9.886798 -77.476546
LeftForeArm 0.206269 0.000000 122.010245
LeftHand 9.187248 -0.000000 2.229247
LeftHandThumb1 -26.253704 0.000000 33.147579
RightShoulder -3.445251 -11.805132 -18.562484
RightArm 18.115609 -31.460873 77.616430
RightForeArm 4.803457 -0.000000 115.829609
RightHand 11.283199 -0.000000 -0.928873
RightHandThumb1 -24.326973 -0.000000 -32.862282
LeftUpLeg -41.488672 8.437644 6.307474
LeftLeg 18.960556 -0.000000 -0.000000
LeftFoot 6.082793 12.721079 -17.159546
LeftToeBase -4.631069 -0.000000 0.000000
RightUpLeg 1.839239 2.315911 13.601033
RightLeg -1.551351 -0.000000 0.000000
RightFoot -19.345392 -15.838322 11.821066
RightToeBase -4.420902 -0.000000 0.000000
2393
root 5.489669 31.230354 -18.869087 13.816513 -9.124243 -9.678300
Spine -6.256024 1.546404 8.845787
Head 7.981675 -3.348936 0.657096
LeftShoulder -19.630356 48.207507 4.249910
LeftArm 52.458449 9.806964 -77.550681
LeftForeArm 0.213798 -0.000000 122.024315
LeftHand 9.239069 0.000000 2.189197
LeftHandThumb1 -26.253704 0.000000 33.147579
RightShoulder -3.423126 -11.806541 -18.590037
RightArm 18.105028 -31.507122 77.589330
RightForeArm 4.800126 -0.000000 115.845786
RightHand 11.318215 -0.000000 -1.013951
RightHandThumb1 -24.326973 -0.000000 -32.862282
LeftUpLeg -41.681536 8.479016 6.358881
LeftLeg 19.534442 -0.000000 -0.000000
LeftFoot 6.034946 12.531823 -17.331527
LeftToeBase -4.888243 -0.000000 0.000000
RightUpLeg 1.802706 2.341773 13.587843
RightLeg -1.289318 -0.000000 0.000000
RightFoot -19.490796 -15.845631 11.799400
RightToeBase -4.412968 -0.000000 0.000000
2394
root 5.495300 31.228494 -18.849177 13.796861 -9.170973 -9.671545
Spine -6.185008 1.597924 8.759998
Head 8.093967 -3.354476 0.582953
LeftShoulder -19.659693 48.223250 4.200962
LeftArm 52.385663 9.724051 -77.630263
LeftForeArm 0.192464 -0.000000 122.041904
LeftHand 9.258565 0.000000 2.112841
LeftHandThumb1 -26.253704 0.000000 33.147579
RightShoulder -3.415366 -11.810872 -18.628977
RightArm 18.138721 -31.574036 77.552597
RightForeArm 4.828048 -0.000000 115.850684
RightHand 11.357003 0.000000 -1.101111
RightHandThumb1 -24.326973 -0.000000 -32.862282
LeftUpLeg -41.952768 8.505109 6.387106
LeftLeg 20.190915 -0.000000 -0.000000
LeftFoot 6.063246 12.364687 -17.474768
LeftToeBase -5.235916 -0.000000 0.000000
RightUpLeg 1.770357 2.406217 13.560672
RightLeg -1.090222 -0.000000 0.000000
RightFoot -19.615847 -15.894170 11.805459
RightToeBase -4.431479 -0.000000 0.000000
2395
root 5.503609 31.225766 -18.827764 13.757724 -9.203483 -9.621620
Spine -6.095994 1.612304 8.637996
Head 8.201165 -3.326301 0.496332
LeftShoulder -19.693875 48.221969 4.154804
LeftArm 52.302654 9.652096 -77.710390
LeftForeArm 0.108789 -0.000000 122.080683
LeftHand 9.220282 -0.000000 2.188274
LeftHandThumb1 -26.253704 0.000000 33.147579
RightShoulder -3.385992 -11.804395 -18.665632
RightArm 18.156313 -31.616316 77.535179
RightForeArm 4.820922 -0.000000 115.868050
RightHand 11.362057 -0.000000 -1.055770
RightHandThumb1 -24.326973 -0.000000 -32.862282
LeftUpLeg -42.254300 8.473322 6.399716
LeftLeg 20.921368 -0.000000 -0.000000
LeftFoot 6.133468 12.217119 -17.674986
LeftToeBase -5.726596 -0.000000 0.000000
RightUpLeg 1.696003 2.338768 13.490445
RightLeg -0.780224 -0.000000 0.000000
RightFoot -19.797494 -15.841410 11.784185
RightToeBase -4.472757 -0.000000 0.000000
2396
root 5.513904 31.223194 -18.804438 13.737046 -9.204665 -9.548076
Spine -6.039473 1.618934 8.491466
Head 8.320133 -3.361526 0.444574
LeftShoulder -19.729260 48.279799 4.107444
LeftArm 52.301262 9.600533 -77.785765
LeftForeArm 0.142621 -0.000000 122.098468
LeftHand 9.214522 0.000000 2.336953
LeftHandThumb1 -26.253704 0.000000 33.147579
RightShoulder -3.404809 -11.829573 -18.682642
RightArm 18.202154 -31.653872 77.503981
RightForeArm 4.818290 -0.000000 115.885121
RightHand 11.304870 -0.000000 -0.991478
RightHandThumb1 -24.326973 -0.000000 -32.862282
LeftUpLeg -42.616209 8.387737 6.408364
LeftLeg 21.711222 -0.000000 -0.000000
LeftFoot 6.245029 12.084580 -17.870142
LeftToeBase -6.222581 -0.000000 0.000000
RightUpLeg 1.608299 2.290272 13.399477
RightLeg -0.493833 -0.000000 0.000000
RightFoot -19.984429 -15.813337 11.786910
RightToeBase -4.521663 -0.000000 0.000000
2397
root 5.523638 31.221970 -18.780763 13.684281 -9.248054 -9.496063
Spine -5.920258 1.656287 8.358184
Head 8.400590 -3.356072 0.399313
LeftShoulder -19.746429 48.292102 4.069175
LeftArm 52.265462 9.539498 -77.877753
LeftForeArm 0.208184 -0.000000 122.116826
LeftHand 9.228489 -0.000000 2.267587
LeftHandThumb1 -26.253704 0.000000 33.147579
RightShoulder -3.393591 -11.812082 -18.698888
RightArm 18.202036 -31.681498 77.490073
RightForeArm 4.904216 -0.000000 115.910497
RightHand 11.340276 -0.000000 -0.655525
RightHandThumb1 -24.326973 -0.000000 -32.862282
LeftUpLeg -42.953276 8.355617 6.436285
LeftLeg 22.523867 -0.000000 -0.000000
LeftFoot 6.369555 11.947932 -18.129983
LeftToeBase -6.776240 -0.000000 0.000000
RightUpLeg 1.554471 2.325735 13.320480
RightLeg -0.190888 -0.000000 0.000000
RightFoot -20.162402 -15.817931 11.795946
RightToeBase -4.510897 -0.000000 0.000000
